<?xml version="1.0" encoding="UTF-8"?><svg id="Layer_2" xmlns="http://www.w3.org/2000/svg" viewBox="0 0 86.4 47.8"><defs><style>.cls-1{fill:#fff;}</style></defs><g id="Layer_1-2"><g><g><path class="cls-1" d="M20.69,6.52h3.11l3.75,10.99h-2.67l-.85-2.7h-3.55l-.85,2.7h-2.64l3.68-10.99Zm2.64,6.08l-1.12-3.55-1.08,3.55h2.2Z"/><path class="cls-1" d="M37.05,11.39c-.81,0-1.45,.57-1.45,1.59v4.56h-2.4v-4.56c0-1.01-.44-1.59-1.22-1.59s-1.45,.57-1.45,1.59v4.56h-2.4V9.36h2.4v.95c.57-.78,1.42-1.18,2.3-1.18,1.08,0,1.89,.47,2.33,1.35,.61-.88,1.59-1.35,2.74-1.35,1.72,0,2.77,1.22,2.77,3.35v5.04h-2.4v-4.56c0-.98-.44-1.55-1.22-1.55Z"/><path class="cls-1" d="M41.58,13.45c0-2.84,2.06-4.29,4.12-4.29s4.16,1.49,4.16,4.29v.74h-5.92c.24,.98,1.01,1.42,1.83,1.42,.61,0,.95-.14,1.18-.44h2.77c-.71,1.76-2.4,2.57-3.95,2.57-2.06,0-4.19-1.45-4.19-4.29Zm5.78-.91c-.2-1.12-.98-1.49-1.66-1.49-.81,0-1.49,.47-1.72,1.49h3.38Z"/><path class="cls-1" d="M50.81,9.36h2.4v.98c.61-.78,1.49-1.12,2.47-1.12v2.3c-1.79-.37-2.47,.44-2.47,1.45v4.56h-2.4V9.36Z"/><path class="cls-1" d="M57.8,6.12c.78,0,1.35,.54,1.35,1.35s-.57,1.35-1.35,1.35-1.35-.54-1.35-1.35,.54-1.35,1.35-1.35Zm-1.22,3.25h2.4v8.18h-2.4V9.36Z"/><path class="cls-1" d="M59.93,13.45c0-2.84,2.06-4.29,4.16-4.29,1.76,0,3.52,1.01,4.06,3.14h-2.6c-.3-.64-.85-.91-1.45-.91-1.01,0-1.66,.74-1.66,2.06s.64,2.06,1.66,2.06c.68,0,1.15-.34,1.45-1.08h2.6c-.51,2.23-2.26,3.31-4.06,3.31-2.1,0-4.16-1.45-4.16-4.29Z"/><path class="cls-1" d="M68.72,13.45c0-2.84,1.86-4.29,3.75-4.29,1.08,0,1.93,.37,2.54,1.05v-.85h2.4v8.18h-2.4v-.85c-.61,.68-1.45,1.05-2.54,1.05-1.89,0-3.75-1.45-3.75-4.29Zm4.39,2.06c1.15,0,1.89-.74,1.89-2.06s-.74-2.06-1.89-2.06-1.89,.74-1.89,2.06,.74,2.06,1.89,2.06Z"/><path class="cls-1" d="M82.65,11.39c-.95,0-1.62,.57-1.62,1.59v4.56h-2.4V9.36h2.4v.98c.61-.78,1.49-1.18,2.47-1.18,1.79,0,2.91,1.22,2.91,3.35v5.04h-2.4v-4.56c.03-1.01-.47-1.59-1.35-1.59Z"/></g><g><path class="cls-1" d="M16.83,25.55c0-3.45,2.43-5.71,5.48-5.71,2.6,0,4.77,1.62,5.34,4.23h-2.7c-.44-1.12-1.35-1.83-2.67-1.83-1.79,0-2.87,1.35-2.87,3.31s1.08,3.31,2.87,3.31c1.35,0,2.26-.78,2.67-1.99h2.67c-.54,2.7-2.7,4.39-5.34,4.39-3.01,.03-5.44-2.23-5.44-5.71Z"/><path class="cls-1" d="M28.33,26.97c0-2.84,1.86-4.29,3.75-4.29,1.08,0,1.93,.37,2.54,1.05v-.85h2.4v8.18h-2.4v-.85c-.61,.68-1.45,1.05-2.54,1.05-1.89,.03-3.75-1.45-3.75-4.29Zm4.39,2.1c1.15,0,1.89-.74,1.89-2.06s-.74-2.06-1.89-2.06-1.89,.74-1.89,2.06c-.03,1.28,.74,2.06,1.89,2.06Z"/><path class="cls-1" d="M42.25,24.91c-.95,0-1.62,.57-1.62,1.59v4.56h-2.4v-8.18h2.4v.98c.61-.78,1.49-1.18,2.47-1.18,1.79,0,2.91,1.22,2.91,3.35v5.04h-2.4v-4.56c.03-1.01-.51-1.59-1.35-1.59Z"/><path class="cls-1" d="M46.95,26.97c0-2.84,2.06-4.29,4.16-4.29,1.76,0,3.52,1.01,4.06,3.14h-2.6c-.3-.64-.85-.91-1.45-.91-1.01,0-1.66,.74-1.66,2.06s.64,2.06,1.66,2.06c.68,0,1.15-.34,1.45-1.08h2.6c-.51,2.23-2.26,3.31-4.06,3.31-2.13,.03-4.16-1.45-4.16-4.29Z"/><path class="cls-1" d="M55.74,26.97c0-2.84,2.06-4.29,4.12-4.29s4.16,1.49,4.16,4.29v.74h-5.92c.24,.98,1.01,1.42,1.83,1.42,.61,0,.95-.14,1.18-.44h2.77c-.71,1.76-2.4,2.57-3.95,2.57-2.03,.03-4.19-1.45-4.19-4.29Zm5.81-.91c-.2-1.12-.98-1.49-1.66-1.49-.81,0-1.49,.47-1.72,1.49h3.38Z"/><path class="cls-1" d="M65,22.88h2.4v.98c.61-.78,1.49-1.12,2.47-1.12v2.3c-1.79-.37-2.47,.44-2.47,1.45v4.56h-2.4v-8.18Z"/></g><path class="cls-1" d="M27.28,40.73c0-2.84,2.16-4.29,4.39-4.29s4.39,1.49,4.39,4.29-2.16,4.29-4.39,4.29-4.39-1.45-4.39-4.29Zm4.36,2.06c1.15,0,1.89-.74,1.89-2.06s-.74-2.06-1.89-2.06-1.89,.74-1.89,2.06,.74,2.06,1.89,2.06Z"/><path class="cls-1" d="M36.68,40.73c0-2.84,2.06-4.29,4.16-4.29,1.76,0,3.52,1.01,4.06,3.14h-2.6c-.3-.64-.85-.91-1.45-.91-1.01,0-1.66,.74-1.66,2.06s.64,2.06,1.66,2.06c.68,0,1.15-.34,1.45-1.08h2.6c-.51,2.23-2.26,3.31-4.06,3.31-2.1,0-4.16-1.45-4.16-4.29Z"/><path class="cls-1" d="M47.02,33.4c.78,0,1.35,.54,1.35,1.35s-.57,1.35-1.35,1.35-1.35-.54-1.35-1.35,.54-1.35,1.35-1.35Zm-1.22,3.25h2.4v8.18h-2.4v-8.18Z"/><path class="cls-1" d="M49.12,40.73c0-2.84,2.06-4.29,4.12-4.29s4.16,1.49,4.16,4.29v.74h-5.92c.24,.98,1.01,1.42,1.83,1.42,.61,0,.95-.14,1.18-.44h2.77c-.71,1.76-2.4,2.57-3.95,2.57-2.06,0-4.19-1.45-4.19-4.29Zm5.81-.91c-.2-1.12-.98-1.49-1.66-1.49-.81,0-1.49,.47-1.72,1.49h3.38Z"/><path class="cls-1" d="M66.66,43.77l-3.11-7.13h2.6l1.76,4.19,1.62-4.19h2.47l-4.53,11.15h-2.47l1.66-4.02Z"/><path class="cls-1" d="M23.66,38.3l-1.96-.44c-.95-.24-1.05-.64-1.05-.98,0-.64,.57-1.05,1.49-1.05,1.15,0,1.59,.61,1.79,1.15l.03,.14h2.6l-.03-.24c-.41-2.03-2.03-3.25-4.39-3.25s-4.06,1.45-4.06,3.48c0,1.62,.98,2.67,2.87,3.11l1.93,.44c.95,.2,1.15,.57,1.15,1.01,0,.71-.61,1.15-1.59,1.15-.71,0-1.62-.2-1.93-1.25l-.03-.14h-2.67l.03,.24c.37,2.13,2.13,3.38,4.63,3.38s4.16-1.42,4.16-3.52c0-1.66-1.05-2.81-2.97-3.25Z"/><path class="cls-1" d="M61.83,42.69c-.3,0-.44-.2-.44-.51v-3.38h1.72v-2.13h-1.72v-2.91l-2.4,.88v2.03h-1.22v2.13h1.22v3.38c0,1.55,1.25,2.64,2.84,2.64h1.49v-2.13h-1.49Z"/><g><path class="cls-1" d="M9.13,30.25l-4.87,3.79c-.88,.68-1.05,1.96-.34,2.84v.03l4.87-3.82c.88-.68,1.05-1.93,.34-2.84h0Z"/><path class="cls-1" d="M4.87,37.15c-.88,.71-1.05,1.99-.34,2.87h0c.07,.1,.17,.2,.27,.27,.07-.37,.27-.68,.57-.95l2.54-1.99c.88-.71,1.05-1.99,.34-2.87l-3.38,2.67Z"/><path class="cls-1" d="M12.68,25.25c0-1.42-1.15-2.57-2.57-2.57h-1.96l.81,1.01-.81,1.01h1.93c.27,0,.54,.2,.54,.51,0,.17-.07,.3-.17,.41l-6.79,5.31c-.88,.71-1.05,1.99-.34,2.87h0l8.38-6.56c.61-.44,.98-1.18,.98-1.99Z"/><path class="cls-1" d="M1.05,27.28l3.01,2.37,1.66-1.32-3.48-2.7c-.1-.1-.2-.24-.17-.41,0-.27,.24-.51,.54-.51h1.93l-.81-1.01,.81-1.01h-1.96c-1.42,0-2.57,1.15-2.57,2.57,.03,.81,.44,1.55,1.05,2.03Z"/><polygon class="cls-1" points="6.35 0 5.17 2.06 5.17 26.91 6.35 27.85 7.57 26.91 7.57 2.06 6.35 0"/><path class="cls-1" d="M7.13,42.59l.41-3.99-1.76,1.39c-.41,.3-.57,.81-.51,1.25l.24,1.39c-.3,.24-.51,.64-.51,1.05,0,.74,.61,1.35,1.35,1.35s1.35-.61,1.35-1.35c0-.44-.24-.85-.57-1.08Z"/></g><path class="cls-1" d="M74.05,33.55c.2,.12,.36,.28,.48,.49,.12,.21,.17,.44,.17,.7s-.06,.49-.17,.7c-.12,.21-.28,.37-.48,.49-.2,.12-.44,.18-.69,.18s-.5-.06-.7-.18c-.2-.12-.36-.28-.48-.49-.12-.21-.17-.44-.17-.7s.06-.49,.17-.7c.12-.21,.28-.37,.48-.49,.2-.12,.44-.18,.7-.18s.49,.06,.69,.18Zm.08,1.98c.2-.2,.3-.47,.3-.79s-.1-.59-.3-.79c-.2-.2-.46-.31-.78-.31s-.58,.1-.78,.31c-.19,.2-.29,.47-.29,.79s.1,.59,.29,.79c.19,.2,.45,.31,.78,.31s.58-.1,.78-.31Zm-.26-.8c-.06,.07-.13,.13-.23,.16l.37,.55h-.42s-.32-.53-.32-.53h-.11v.53h-.35v-1.43h.64c.15,0,.27,.04,.36,.12,.09,.08,.14,.19,.14,.33,0,.11-.03,.2-.08,.27Zm-.71-.1h.27s.09-.01,.12-.04c.03-.03,.05-.06,.05-.11s-.02-.09-.05-.11c-.03-.02-.07-.04-.12-.04h-.27v.3Z"/></g></g></svg>